<svg width="47" height="52" viewBox="0 0 47 52" fill="none" xmlns="http://www.w3.org/2000/svg">
<path d="M1.58259 41.2908L15.3311 41.4936L15.285 44.6182C15.2581 46.4414 14.5081 48.1792 13.1999 49.4494C11.8917 50.7195 10.1325 51.418 8.30938 51.3911C6.48622 51.3642 4.74841 50.6142 3.47825 49.306C2.20809 47.9978 1.50962 46.2386 1.53651 44.4155L1.58259 41.2908ZM12.0195 11.7415C17.0189 11.8152 19.4125 19.0513 19.3387 24.0508C19.3019 26.5505 18.0151 29.0318 16.71 32.7629L15.4048 36.4941L1.65632 36.2913C1.69318 33.7916 0.498617 30.0236 0.590779 23.7743C0.682941 17.525 5.76514 11.6493 12.0195 11.7415ZM41.8571 32.1287L41.2693 35.1979C40.9262 36.9888 39.8857 38.5702 38.3767 39.594C36.8678 40.6179 35.0139 41.0003 33.2229 40.6573C31.4319 40.3142 29.8505 39.2738 28.8267 37.7648C27.8028 36.2558 27.4204 34.4019 27.7634 32.6109L28.3537 29.5443L41.8571 32.1287ZM37.6244 1.0804C43.7678 2.25612 47.5532 9.03767 46.3775 15.176C45.2019 21.3168 43.2683 24.7637 42.7996 27.2196L29.2937 24.6326L28.7715 20.7145C28.2492 16.7964 27.4938 14.1049 27.9625 11.6516C28.9025 6.7399 32.7128 0.140371 37.6244 1.0804Z" fill="black"/>
</svg>
