<svg width="173" height="78" viewBox="0 0 173 78" fill="none" xmlns="http://www.w3.org/2000/svg">
<g filter="url(#filter0_d_92_91)">
<rect width="165" height="70" rx="15" fill="black"/>
</g>
<path d="M26.376 43C23.6667 43 22.312 41.816 22.312 39.448V26.168C22.312 23.8213 23.6667 22.648 26.376 22.648H30.664C33.352 22.648 34.696 23.8213 34.696 26.168V39.448C34.696 40.856 34.2373 41.848 33.32 42.424L35.976 45.464H30.888L28.776 43H26.376ZM26.888 26.808V38.84C26.888 39.3733 27.176 39.64 27.752 39.64H29.288C29.8427 39.64 30.12 39.3733 30.12 38.84V26.808C30.12 26.2747 29.8427 26.008 29.288 26.008H27.752C27.176 26.008 26.888 26.2747 26.888 26.808ZM44.484 35.384V43H39.94V22.648H48.324C51.012 22.648 52.356 23.8213 52.356 26.168V31.864C52.356 33.7413 51.5027 34.872 49.796 35.256L53.38 43H48.484L45.284 35.384H44.484ZM44.484 26.008V32.152H46.948C47.2467 32.152 47.46 32.0987 47.588 31.992C47.716 31.864 47.78 31.6613 47.78 31.384V26.808C47.78 26.2747 47.5027 26.008 46.948 26.008H44.484ZM56.992 35V31.864H65.632V35H56.992ZM70.565 22.648H78.949C81.637 22.648 82.981 23.8213 82.981 26.168V32.344C82.981 34.712 81.637 35.896 78.949 35.896H75.109V43H70.565V22.648ZM78.405 31.736V26.808C78.405 26.2747 78.1277 26.008 77.573 26.008H75.109V32.536H77.573C78.1277 32.536 78.405 32.2693 78.405 31.736ZM91.3708 27.16H94.9868C97.6961 27.16 99.0508 28.344 99.0508 30.712V36.312H91.5948V39.032C91.5948 39.3093 91.6588 39.512 91.7868 39.64C91.9148 39.7467 92.1388 39.8 92.4588 39.8H93.8988C94.1974 39.8 94.4108 39.736 94.5388 39.608C94.6668 39.48 94.7308 39.2667 94.7308 38.968V37.912H99.0188V39.448C99.0188 41.816 97.6641 43 94.9548 43H91.3708C88.6828 43 87.3388 41.816 87.3388 39.448V30.712C87.3388 28.344 88.6828 27.16 91.3708 27.16ZM91.5948 33.688H94.7628V31.128C94.7628 30.8507 94.6988 30.6587 94.5708 30.552C94.4428 30.424 94.2294 30.36 93.9308 30.36H92.4588C92.1388 30.36 91.9148 30.424 91.7868 30.552C91.6588 30.6587 91.5948 30.8507 91.5948 31.128V33.688ZM110.79 30.52H108.71V38.808C108.71 39.32 108.998 39.576 109.574 39.576H110.79V43H108.294C105.606 43 104.262 41.816 104.262 39.448V30.52H102.598V27.16H104.262V24.216H108.71V27.16H110.79V30.52Z" fill="white"/>
<path d="M118.75 33.75H128.75V23.75H118.75V33.75ZM121.25 26.25H126.25V31.25H121.25V26.25ZM118.75 46.25H128.75V36.25H118.75V46.25ZM121.25 38.75H126.25V43.75H121.25V38.75ZM131.25 23.75V33.75H141.25V23.75H131.25ZM138.75 31.25H133.75V26.25H138.75V31.25ZM138.75 43.75H141.25V46.25H138.75V43.75ZM131.25 36.25H133.75V38.75H131.25V36.25ZM133.75 38.75H136.25V41.25H133.75V38.75ZM131.25 41.25H133.75V43.75H131.25V41.25ZM133.75 43.75H136.25V46.25H133.75V43.75ZM136.25 41.25H138.75V43.75H136.25V41.25ZM136.25 36.25H138.75V38.75H136.25V36.25ZM138.75 38.75H141.25V41.25H138.75V38.75Z" fill="#F8F8F8"/>
<defs>
<filter id="filter0_d_92_91" x="0" y="0" width="173" height="78" filterUnits="userSpaceOnUse" color-interpolation-filters="sRGB">
<feFlood flood-opacity="0" result="BackgroundImageFix"/>
<feColorMatrix in="SourceAlpha" type="matrix" values="0 0 0 0 0 0 0 0 0 0 0 0 0 0 0 0 0 0 127 0" result="hardAlpha"/>
<feOffset dx="6" dy="6"/>
<feGaussianBlur stdDeviation="1"/>
<feComposite in2="hardAlpha" operator="out"/>
<feColorMatrix type="matrix" values="0 0 0 0 0 0 0 0 0 0 0 0 0 0 0 0 0 0 0.25 0"/>
<feBlend mode="normal" in2="BackgroundImageFix" result="effect1_dropShadow_92_91"/>
<feBlend mode="normal" in="SourceGraphic" in2="effect1_dropShadow_92_91" result="shape"/>
</filter>
</defs>
</svg>
