<svg width="40" height="40" viewBox="0 0 40 40" fill="none" xmlns="http://www.w3.org/2000/svg">
<path d="M15 15C17.15 15 19.1667 15.6833 20.7833 16.85L29.3 8.33333H21.6667V5H35V18.3333H31.6667V10.6833L23.15 19.1667C24.3167 20.8333 25 22.8333 25 25C25 27.6522 23.9464 30.1957 22.0711 32.0711C20.1957 33.9464 17.6522 35 15 35C12.3478 35 9.8043 33.9464 7.92893 32.0711C6.05357 30.1957 5 27.6522 5 25C5 22.3478 6.05357 19.8043 7.92893 17.9289C9.8043 16.0536 12.3478 15 15 15ZM15 18.3333C13.2319 18.3333 11.5362 19.0357 10.286 20.286C9.03571 21.5362 8.33333 23.2319 8.33333 25C8.33333 26.7681 9.03571 28.4638 10.286 29.714C11.5362 30.9643 13.2319 31.6667 15 31.6667C16.7681 31.6667 18.4638 30.9643 19.714 29.714C20.9643 28.4638 21.6667 26.7681 21.6667 25C21.6667 23.2319 20.9643 21.5362 19.714 20.286C18.4638 19.0357 16.7681 18.3333 15 18.3333Z" fill="white"/>
</svg>
