<svg width="61" height="61" viewBox="0 0 61 61" fill="none" xmlns="http://www.w3.org/2000/svg">
<path d="M56.7334 25.681C56.7334 26.9789 56.3485 28.2477 55.6274 29.3269C54.9063 30.4061 53.8814 31.2472 52.6823 31.7439C51.4831 32.2406 50.1636 32.3706 48.8906 32.1174C47.6176 31.8642 46.4483 31.2391 45.5305 30.3214C44.6127 29.4036 43.9877 28.2343 43.7345 26.9613C43.4813 25.6883 43.6112 24.3688 44.1079 23.1696C44.6046 21.9705 45.4458 20.9455 46.525 20.2245C47.6042 19.5034 48.873 19.1185 50.1709 19.1185C51.9114 19.1185 53.5806 19.8099 54.8113 21.0406C56.042 22.2713 56.7334 23.9405 56.7334 25.681ZM17.3584 25.681C17.3584 24.383 16.9735 23.1142 16.2524 22.035C15.5313 20.9558 14.5064 20.1147 13.3073 19.618C12.1081 19.1213 10.7886 18.9914 9.51562 19.2446C8.24262 19.4978 7.0733 20.1228 6.15551 21.0406C5.23773 21.9584 4.61271 23.1277 4.3595 24.4007C4.10628 25.6737 4.23624 26.9932 4.73294 28.1923C5.22964 29.3915 6.07077 30.4164 7.14997 31.1375C8.22917 31.8586 9.49796 32.2435 10.7959 32.2435C12.5364 32.2435 14.2056 31.5521 15.4363 30.3214C16.667 29.0907 17.3584 27.4215 17.3584 25.681ZM22.0459 20.9935C23.3438 20.9935 24.6126 20.6086 25.6918 19.8875C26.771 19.1664 27.6122 18.1415 28.1089 16.9423C28.6056 15.7432 28.7355 14.4237 28.4823 13.1507C28.2291 11.8777 27.6041 10.7084 26.6863 9.79058C25.7685 8.8728 24.5992 8.24778 23.3262 7.99457C22.0532 7.74135 20.7337 7.87131 19.5345 8.36801C18.3354 8.86471 17.3105 9.70584 16.5894 10.785C15.8683 11.8642 15.4834 13.133 15.4834 14.431C15.4834 16.1715 16.1748 17.8407 17.4055 19.0714C18.6362 20.3021 20.3054 20.9935 22.0459 20.9935ZM38.9209 20.9935C40.2188 20.9935 41.4876 20.6086 42.5668 19.8875C43.646 19.1664 44.4872 18.1415 44.9839 16.9423C45.4806 15.7432 45.6105 14.4237 45.3573 13.1507C45.1041 11.8777 44.4791 10.7084 43.5613 9.79058C42.6435 8.8728 41.4742 8.24778 40.2012 7.99457C38.9282 7.74135 37.6087 7.87131 36.4095 8.36801C35.2104 8.86471 34.1855 9.70584 33.4644 10.785C32.7433 11.8642 32.3584 13.133 32.3584 14.431C32.3584 16.1715 33.0498 17.8407 34.2805 19.0714C35.5112 20.3021 37.1804 20.9935 38.9209 20.9935ZM44.3396 35.2575C43.3873 34.7321 42.5478 34.0241 41.8694 33.1739C41.1909 32.3237 40.6867 31.3481 40.3857 30.3028C39.7623 28.1589 38.4599 26.2752 36.6743 24.9348C34.8886 23.5944 32.7162 22.8698 30.4834 22.8698C28.2507 22.8698 26.0782 23.5944 24.2925 24.9348C22.5069 26.2752 21.2045 28.1589 20.5811 30.3028C19.9788 32.406 18.567 34.1845 16.6553 35.2482C14.8213 36.2405 13.3706 37.8159 12.5324 39.7253C11.6943 41.6346 11.5167 43.7689 12.0276 45.7906C12.5385 47.8122 13.7089 49.6058 15.3535 50.8877C16.9981 52.1696 19.0232 52.8666 21.1084 52.8685C22.358 52.8721 23.5954 52.6225 24.7459 52.1349C28.414 50.6221 32.5317 50.6221 36.1998 52.1349C38.4216 53.1012 40.9312 53.1698 43.2024 52.3264C45.4737 51.483 47.3302 49.793 48.3828 47.6108C49.4354 45.4286 49.6024 42.9237 48.8486 40.6211C48.0948 38.3185 46.4789 36.3972 44.3396 35.2599V35.2575Z" fill="black"/>
</svg>
